<?xml version="1.0" standalone="no"?><!DOCTYPE svg PUBLIC "-//W3C//DTD SVG 1.1//EN" "http://www.w3.org/Graphics/SVG/1.1/DTD/svg11.dtd"><svg class="icon" width="200px" height="200.00px" viewBox="0 0 1024 1024" version="1.1" xmlns="http://www.w3.org/2000/svg"><path d="M753.066667 711.04l80.853333-18.986667c1.066667-3.413333 2.346667-6.826667 4.266667-9.813333l-46.506667-60.8-38.613333 89.6zM789.333333 469.333333a192 192 0 1 0 0.021334 384.021334A192 192 0 0 0 789.333333 469.333333z m85.333334 277.333334c-12.16 0-23.04-5.12-30.72-13.226667l-92.373334 21.546667c-3.84 19.626667-21.12 34.133333-41.813333 34.133333-23.466667 0-42.666667-19.2-42.666667-42.666667s18.986667-42.453333 42.453334-42.666666l44.8-103.68c-4.906667-6.613333-7.68-15.146667-7.68-24.106667 0-23.466667 19.2-42.666667 42.666666-42.666667s42.666667 19.2 42.666667 42.666667c0 7.466667-2.133333 14.506667-5.546667 20.48L875.946667 661.333333c23.04 0.853333 41.386667 19.626667 41.386666 42.666667 0 23.466667-19.2 42.666667-42.666666 42.666667zM42.666667 291.2a373.333333 120.533333 0 1 0 746.666666 0 373.333333 120.533333 0 1 0-746.666666 0ZM416 692.693333c-164.053333 0-303.36-34.133333-353.493333-81.493333a11.626667 11.626667 0 0 0-19.84 8.533333v113.066667C42.666667 799.36 209.92 853.333333 416 853.333333c68.48 0 132.266667-5.973333 187.306667-16.426666a253.589333 253.589333 0 0 1-68.693334-150.4c-37.333333 4.053333-77.226667 6.186667-118.613333 6.186666zM416 632.533333c42.026667 0 82.346667-2.346667 120.106667-6.4 10.666667-76.8 55.253333-142.72 118.4-181.973333-64.64 17.28-147.84 27.946667-238.506667 27.946667-164.053333 0-303.36-34.133333-353.493333-81.493334a11.477333 11.477333 0 0 0-19.84 8.32V512c0 66.56 167.253333 120.533333 373.333333 120.533333z" /></svg>