<?xml version="1.0" standalone="no"?><!DOCTYPE svg PUBLIC "-//W3C//DTD SVG 1.1//EN" "http://www.w3.org/Graphics/SVG/1.1/DTD/svg11.dtd"><svg class="icon" width="200px" height="200.00px" viewBox="0 0 1024 1024" version="1.1" xmlns="http://www.w3.org/2000/svg"><path d="M512 456.533333c247.466667 0 448-61.866667 448-140.8V204.8C960 125.866667 759.466667 64 512 64S64 125.866667 64 204.8v110.933333c0 76.8 200.533333 140.8 448 140.8zM512 708.266667c247.466667 0 448-61.866667 448-140.8v-168.533334c0 76.8-200.533333 140.8-448 140.8S64 477.866667 64 398.933333v168.533334c0 76.8 200.533333 140.8 448 140.8zM512 791.466667c-247.466667 0-448-61.866667-448-140.8v168.533333C64 896 264.533333 960 512 960s448-61.866667 448-140.8v-168.533333c0 78.933333-200.533333 140.8-448 140.8z" /></svg>