<?xml version="1.0" standalone="no"?><!DOCTYPE svg PUBLIC "-//W3C//DTD SVG 1.1//EN" "http://www.w3.org/Graphics/SVG/1.1/DTD/svg11.dtd"><svg t="1712996230879" class="icon" viewBox="0 0 1024 1024" version="1.1" xmlns="http://www.w3.org/2000/svg" p-id="1533" xmlns:xlink="http://www.w3.org/1999/xlink" width="200" height="200"><path d="M463.1552 149.4016l-307.5584 128.512-2.7648 1.28c-53.76 27.392-54.3744 104.192 2.7136 128.2048l308.9408 109.9776c35.584 13.312 57.0368 13.312 95.232 0.1536l307.2-109.312c58.368-21.6064 59.0848-105.472 2.6624-130.048L562.176 149.6064C529.408 134.2976 500.7872 134.4512 463.1552 149.4016z m346.1632 192.3072L532.6336 440.2176l-6.7584 2.304c-12.0832 3.8912-16.384 3.8912-27.2384 0.1024l-283.3408-100.864 278.7328-116.5312c14.7968-5.8368 20.6336-6.6048 30.464-2.6624l284.8256 119.1424z" fill="" p-id="1534"></path><path d="M847.36 576m0 40.96l0 174.08q0 40.96-40.96 40.96l0 0q-40.96 0-40.96-40.96l0-174.08q0-40.96 40.96-40.96l0 0q40.96 0 40.96 40.96Z" fill="" p-id="1535"></path><path d="M795.5456 897.9456l-116.5312-116.5312a15.36 15.36 0 0 1 10.8544-26.2144h233.0624a15.36 15.36 0 0 1 10.8544 26.2144l-116.5312 116.5312a15.36 15.36 0 0 1-21.7088 0z" fill="" p-id="1536"></path><path d="M132.8128 539.2384a40.96 40.96 0 0 1 47.0016-26.368l5.3248 1.536L492.544 623.7184c18.0224 6.7584 19.968 6.7584 40.448-0.3584a40.96 40.96 0 0 1 26.7264 77.4656c-34.3552 11.8272-55.1936 13.0048-84.992 3.4304L157.696 591.5648a40.96 40.96 0 0 1-24.8832-52.3264zM132.8128 728.6784a40.96 40.96 0 0 1 47.0016-26.368l5.3248 1.536 307.4048 109.3632c18.0224 6.7584 19.968 6.7584 40.448-0.3584a40.96 40.96 0 0 1 26.7264 77.4656c-34.3552 11.8272-55.1936 13.0048-84.992 3.4304L157.696 781.0048a40.96 40.96 0 0 1-24.8832-52.3264z" fill="" p-id="1537"></path></svg>