<?xml version="1.0" standalone="no"?><!DOCTYPE svg PUBLIC "-//W3C//DTD SVG 1.1//EN" "http://www.w3.org/Graphics/SVG/1.1/DTD/svg11.dtd"><svg t="1715154110410" class="icon" viewBox="0 0 1024 1024" version="1.1" xmlns="http://www.w3.org/2000/svg" p-id="1444" xmlns:xlink="http://www.w3.org/1999/xlink" width="200" height="200"><path d="M598.08 134.976l4.224 3.712 347.2 347.2a34.688 34.688 0 0 1 3.84 45.376l-3.84 4.416-347.2 349.632a32.832 32.832 0 0 1-39.36 6.976 34.752 34.752 0 0 1-20.16-25.984l-0.448-5.888v-224.64l-4.992 0.64c-155.136 22.208-308.48 88.448-390.976 208.832l-17.152 27.648c-8.192 12.416-13.632 20.672-25.088 22.592l-4.928 0.384-9.92-0.32c-14.464-3.648-25.28-19.968-25.28-35.136 0-40.512 24.064-136.768 73.152-220.16 78.528-133.248 206.976-222.08 395.52-243.584l9.6-1.024 0.064-232.064a35.2 35.2 0 0 1 12.224-27.84l4.032-2.496 4.352-1.536a32.384 32.384 0 0 1 35.136 3.2z m292.48 375.936l-288.512-288.64v226.624l-62.592 6.4C376.512 474.048 261.12 547.2 188.8 670.08a520.32 520.32 0 0 0-32 65.28l-4.544 11.264c87.552-85.568 213.12-141.632 356.096-165.376l25.536-3.904 68.224-9.728-0.128 233.792 288.64-290.432z" fill="" p-id="1445"></path></svg>