<?xml version="1.0" standalone="no"?><!DOCTYPE svg PUBLIC "-//W3C//DTD SVG 1.1//EN" "http://www.w3.org/Graphics/SVG/1.1/DTD/svg11.dtd"><svg t="1716609210921" class="icon" viewBox="0 0 1027 1024" version="1.1" xmlns="http://www.w3.org/2000/svg" p-id="5118" xmlns:xlink="http://www.w3.org/1999/xlink" width="200.5859375" height="200"><path d="M515.2 1024c-281.6 0-512-230.4-512-512s230.4-512 512-512 512 230.4 512 512-230.4 512-512 512z m-54.4-236.8c9.6 9.6 22.4 16 38.4 16s28.8-6.4 41.6-16c9.6-9.6 16-22.4 16-38.4s-6.4-28.8-16-38.4c-9.6-9.6-25.6-16-41.6-16s-28.8 3.2-38.4 16c-12.8 9.6-16 22.4-16 38.4s6.4 28.8 16 38.4z m172.8-502.4c-32-28.8-73.6-48-124.8-48-57.6 0-96 25.6-128 57.6-22.4 22.4-38.4 48-44.8 83.2-6.4 25.6 12.8 51.2 38.4 51.2 19.2 0 35.2-12.8 38.4-32 3.2-19.2 9.6-35.2 19.2-48 16-22.4 41.6-32 76.8-32 28.8 0 48 6.4 64 22.4 16 16 22.4 35.2 22.4 64 0 19.2-6.4 38.4-19.2 57.6l-12.8 16c-48 41.6-76.8 73.6-86.4 96-3.2 6.4-6.4 12.8-6.4 19.2-12.8 22.4 9.6 48 35.2 48 19.2 0 35.2-12.8 38.4-28.8 3.2-6.4 6.4-16 9.6-22.4 6.4-12.8 19.2-25.6 32-38.4 38.4-32 57.6-51.2 64-60.8 19.2-25.6 28.8-57.6 28.8-92.8 0-48-12.8-83.2-44.8-112z" fill="#606060" p-id="5119"></path></svg>