<?xml version="1.0" standalone="no"?><!DOCTYPE svg PUBLIC "-//W3C//DTD SVG 1.1//EN" "http://www.w3.org/Graphics/SVG/1.1/DTD/svg11.dtd"><svg t="1712996217111" class="icon" viewBox="0 0 1024 1024" version="1.1" xmlns="http://www.w3.org/2000/svg" p-id="1100" xmlns:xlink="http://www.w3.org/1999/xlink" width="200" height="200"><path d="M992.256 268.8L441.856 109.056l-409.6 159.744 550.4 198.656 409.6-198.656z m-774.656 0l230.4-95.744 358.4 109.056-236.544 115.2-352.256-128.512z m691.2 128l83.456 25.6-409.6 198.656L32.256 422.4 115.2 384l76.8 32.256 384 134.656 249.856-121.856 82.944-32.256z m0 147.456l83.456 25.6-409.6 198.656L32.256 569.344l83.456-32.256 76.8 25.6 384 140.8 256-128 76.288-31.232z m-6.144 146.944l89.6 32.256-409.6 198.656L31.744 722.944l96.256-38.4 83.456 32.256 365.056 128 249.344-115.2 76.8-38.4z" fill="" p-id="1101"></path><path d="M796.16 751.104m-173.568 0a173.568 173.568 0 1 0 347.136 0 173.568 173.568 0 1 0-347.136 0Z" fill="" p-id="1102"></path><path d="M796.16 946.688c-108.032 0-195.584-87.552-195.584-195.584s87.552-195.584 195.584-195.584 195.584 87.552 195.584 195.584-87.552 195.584-195.584 195.584z m0-26.112c93.696 0 169.472-75.776 169.472-169.472s-75.776-169.472-169.472-169.472-169.472 75.776-169.472 169.472 75.776 169.472 169.472 169.472z m0 0" fill="" p-id="1103"></path><path d="M692.224 751.104c0 57.856 46.592 104.448 104.448 104.448 57.856 0 104.448-46.592 104.448-104.448 0-57.856-46.592-104.448-104.448-104.448-57.856 0-104.448 47.104-104.448 104.448z m0 0" fill="" p-id="1104"></path></svg>