<?xml version="1.0" standalone="no"?><!DOCTYPE svg PUBLIC "-//W3C//DTD SVG 1.1//EN" "http://www.w3.org/Graphics/SVG/1.1/DTD/svg11.dtd"><svg t="1712996227489" class="icon" viewBox="0 0 1024 1024" version="1.1" xmlns="http://www.w3.org/2000/svg" p-id="1391" xmlns:xlink="http://www.w3.org/1999/xlink" width="200" height="200"><path d="M452.48 50.624a44.48 44.48 0 0 1 29.12 0l370.624 128.128a44.48 44.48 0 0 1 0.32 83.968L481.92 394.048a44.48 44.48 0 0 1-29.76 0L81.536 262.72a44.48 44.48 0 0 1 0.32-83.968L452.48 50.624zM231.04 221.312l236.032 83.648 235.968-83.648-235.968-81.6L231.04 221.312zM54.4 355.968a44.48 44.48 0 0 1 56.64-27.264l325.12 113.728c-24.64 20.672-46.08 44.928-63.616 72l-290.88-101.76a44.48 44.48 0 0 1-27.264-56.704zM321.728 698.88c1.216 35.584 8.192 69.632 20.096 101.376L81.664 709.12a44.48 44.48 0 0 1 29.44-83.968l210.56 73.728zM348.16 559.936c-11.776 26.88-19.968 55.68-23.872 85.888l-242.56-84.928a44.48 44.48 0 0 1 29.312-83.968L348.16 560zM821.76 423.36a318.144 318.144 0 0 0-124.48-50.688l125.76-43.968a44.48 44.48 0 0 1 29.376 83.968l-30.72 10.688zM947.264 685.568c-67.712-142.656-170.048-214.4-307.264-214.4-137.28 0-239.552 71.744-307.264 214.464a43.072 43.072 0 0 0 0 36.8c67.712 142.656 170.048 214.4 307.264 214.4 137.28 0 239.552-71.744 307.264-214.464a43.008 43.008 0 0 0 0-36.8zM640 885.44c-115.2 0-199.552-58.432-259.072-181.44C440.448 580.992 524.8 522.56 640 522.56c115.2 0 199.552 58.432 259.072 181.44-59.456 123.008-143.808 181.44-259.072 181.44z m-2.88-307.2a125.696 125.696 0 1 0 0 251.52 125.696 125.696 0 0 0 0-251.52z m0 205.76a80 80 0 1 1 0-159.936 80 80 0 0 1 0 159.936z" fill="" p-id="1392"></path></svg>